<svg xmlns="http://www.w3.org/2000/svg" width="100" height="25" viewBox="0 0 100 25">
    <defs>
        <linearGradient id="a" x1="69.569%" x2="36.453%" y1="75.288%" y2="28.84%">
            <stop offset="0%" stop-color="#FF794B"/>
            <stop offset="100%" stop-color="#9C51B6"/>
        </linearGradient>
    </defs>
    <g fill="none" fill-rule="evenodd">
        <circle cx="10.5" cy="10.5" r="10.5" fill-rule="nonzero" stroke="url(#a)" stroke-width="4" transform="translate(2 2)"/>
        <path fill="#000" d="M34 13.02c0-3.762 2.754-6.426 6.372-6.426 2.79 0 5.058 1.494 5.904 4.068h-2.898c-.594-1.206-1.674-1.8-3.024-1.8-2.196 0-3.762 1.602-3.762 4.158 0 2.538 1.566 4.158 3.762 4.158 1.35 0 2.43-.594 3.024-1.818h2.898c-.846 2.592-3.114 4.068-5.904 4.068-3.618 0-6.372-2.646-6.372-6.408zm13.788 1.278c0-3.114 2.016-5.112 4.554-5.112 1.602 0 2.7.756 3.294 1.584V9.348h2.538v9.972h-2.538v-1.458c-.594.864-1.728 1.62-3.312 1.62.826.666 3.51 1.908.648-1.134 1.962-1.908 3.42-1.908 2.394 0 4.086 1.512 4.086 4.266v5.85h-2.52zm4.878-4.806V6.756h2.52v7.776c0 1.728.936 2.628 2.538 2.628 1.62 0 2.556-.9 2.556-2.628V6.756h2.538v7.758c0 3.312-2.376 4.932-5.13 4.932s-5.022-1.62-5.022-4.932zm12.582 4.806V6.756h2.52V19.32h-2.52z"/>
    </g>
</svg>
